<svg width="29" height="134" viewBox="0 0 29 134" fill="none" xmlns="http://www.w3.org/2000/svg">
<rect width="29" height="134" fill="white"/>
<path d="M8.73437 20.9766C8.73437 19.9557 8.97396 19.0729 9.45312 18.3281C9.93229 17.5833 10.612 17.0078 11.4922 16.6016C12.3724 16.2005 13.4167 16 14.625 16L14.6406 16C15.8542 16 16.901 16.2005 17.7812 16.6016C18.6615 17.0078 19.3411 17.5807 19.8203 18.3203C20.2995 19.0651 20.5391 19.9479 20.5391 20.9687C20.5391 21.7604 20.3828 22.4792 20.0703 23.125C19.763 23.776 19.3333 24.3125 18.7812 24.7344C18.2344 25.1562 17.6016 25.4219 16.8828 25.5312L16.8672 25.5234L16.8672 24.1094L16.8828 24.1016C17.3672 23.9766 17.7839 23.7656 18.1328 23.4687C18.487 23.1719 18.7604 22.8099 18.9531 22.3828C19.1458 21.9609 19.2422 21.4896 19.2422 20.9687C19.2422 20.25 19.0547 19.625 18.6797 19.0937C18.3047 18.5677 17.7734 18.1615 17.0859 17.875C16.3984 17.5885 15.5833 17.4453 14.6406 17.4453L14.625 17.4453C13.6875 17.4453 12.875 17.5885 12.1875 17.875C11.5 18.1615 10.9687 18.5677 10.5937 19.0937C10.2187 19.625 10.0312 20.2526 10.0312 20.9766C10.0312 21.5026 10.1146 21.9792 10.2812 22.4062C10.4531 22.8333 10.6953 23.1927 11.0078 23.4844C11.3255 23.776 11.7005 23.9792 12.1328 24.0937L12.1484 24.1094L12.1484 25.5312L12.1328 25.5312C11.4453 25.4062 10.8464 25.1354 10.3359 24.7187C9.83073 24.3021 9.4375 23.7734 9.15625 23.1328C8.875 22.4974 8.73437 21.7786 8.73437 20.9766ZM9 27.7969L20.7656 27.7969L20.7656 29.1562L16.1562 29.1562L16.1562 29.2812C16.6042 29.4948 16.9505 29.8021 17.1953 30.2031C17.4453 30.6042 17.5703 31.1146 17.5703 31.7344C17.5703 32.3646 17.4479 32.8984 17.2031 33.3359C16.9635 33.7734 16.612 34.1068 16.1484 34.3359C15.6849 34.5651 15.1198 34.6797 14.4531 34.6797L9 34.6797L9 33.3203L14.125 33.3203C14.8854 33.3203 15.4479 33.1589 15.8125 32.8359C16.1823 32.5182 16.3672 32.0234 16.3672 31.3516C16.3672 30.9036 16.2708 30.5156 16.0781 30.1875C15.8854 29.8594 15.612 29.6042 15.2578 29.4219C14.9036 29.2448 14.4792 29.1562 13.9844 29.1562L9 29.1562L9 27.7969ZM8.85156 39.4531C8.85156 38.9219 8.95312 38.4427 9.15625 38.0156C9.35937 37.5937 9.64844 37.2578 10.0234 37.0078C10.3984 36.763 10.8411 36.6406 11.3516 36.6406L11.3672 36.6406C12.1172 36.6406 12.7031 36.9062 13.125 37.4375C13.5521 37.974 13.7943 38.7318 13.8516 39.7109L14.0391 42.8047L12.9531 42.8047L12.7656 39.875C12.7292 39.2344 12.5964 38.7656 12.3672 38.4687C12.138 38.1771 11.8151 38.0312 11.3984 38.0312L11.3828 38.0312C10.9557 38.0312 10.6224 38.1927 10.3828 38.5156C10.1484 38.8385 10.0312 39.2448 10.0312 39.7344C10.0312 40.1979 10.1224 40.6094 10.3047 40.9687C10.4922 41.3281 10.7448 41.6094 11.0625 41.8125C11.3802 42.0208 11.7396 42.125 12.1406 42.125L14.7656 42.125C15.2865 42.125 15.6823 41.9661 15.9531 41.6484C16.2292 41.3359 16.3672 40.8646 16.3672 40.2344C16.3672 39.7292 16.276 39.3151 16.0937 38.9922C15.9167 38.6693 15.6641 38.4531 15.3359 38.3437L15.3125 38.3359L15.3125 36.9766L15.3594 36.9844C15.8021 37.0573 16.1875 37.2396 16.5156 37.5312C16.849 37.8281 17.1068 38.2109 17.2891 38.6797C17.4766 39.1484 17.5703 39.6823 17.5703 40.2812C17.5703 40.9687 17.4583 41.5495 17.2344 42.0234C17.0104 42.5026 16.6875 42.8646 16.2656 43.1094C15.849 43.3594 15.349 43.4844 14.7656 43.4844L9 43.4844L9 42.125L10.2422 42.125L10.2422 42C9.94531 41.8229 9.69271 41.6068 9.48437 41.3516C9.27604 41.1016 9.11719 40.8177 9.00781 40.5C8.90364 40.1823 8.85156 39.8333 8.85156 39.4531ZM9 45.9687L17.4219 45.9687L17.4219 47.3281L16.1562 47.3281L16.1562 47.4531C16.6042 47.6667 16.9505 47.974 17.1953 48.375C17.4453 48.776 17.5703 49.2865 17.5703 49.9062C17.5703 50.8542 17.2995 51.5807 16.7578 52.0859C16.2214 52.5964 15.4531 52.8516 14.4531 52.8516L9 52.8516L9 51.4922L14.125 51.4922C14.8854 51.4922 15.4479 51.3307 15.8125 51.0078C16.1823 50.6901 16.3672 50.1953 16.3672 49.5234C16.3672 49.0755 16.2708 48.6875 16.0781 48.3594C15.8854 48.0312 15.612 47.776 15.2578 47.5937C14.9036 47.4167 14.4792 47.3281 13.9844 47.3281L9 47.3281L9 45.9687ZM6.03125 58.7812C6.03125 58.1042 6.1276 57.513 6.32031 57.0078C6.50781 56.5026 6.77604 56.099 7.125 55.7969C7.46875 55.5 7.86979 55.3151 8.32812 55.2422L8.33594 55.2578L8.33594 56.6641L8.32812 56.6719C8.01041 56.7448 7.75 56.9635 7.54687 57.3281C7.33854 57.6927 7.23437 58.1771 7.23437 58.7812C7.23437 59.5365 7.40625 60.125 7.75 60.5469C8.08854 60.974 8.56771 61.1875 9.1875 61.1875L10.8906 61.1875L10.8906 61.0625C10.5833 60.8854 10.3203 60.6641 10.1016 60.3984C9.88281 60.1328 9.71614 59.8333 9.60156 59.5C9.49219 59.1667 9.4375 58.8073 9.4375 58.4219C9.4375 57.6979 9.60937 57.0703 9.95312 56.5391C10.3021 56.013 10.7812 55.6068 11.3906 55.3203C12 55.0339 12.6979 54.8906 13.4844 54.8906L13.5 54.8906C14.2865 54.8906 14.9844 55.0339 15.5937 55.3203C16.2083 55.612 16.6901 56.0234 17.0391 56.5547C17.3932 57.0859 17.5703 57.7187 17.5703 58.4531C17.5703 58.849 17.5078 59.2135 17.3828 59.5469C17.2578 59.8802 17.0807 60.1745 16.8516 60.4297C16.6224 60.6901 16.349 60.9062 16.0312 61.0781L16.0312 61.1719L17.4219 61.1719L17.4219 62.5312L9.11719 62.5312C8.49219 62.5312 7.94791 62.3776 7.48437 62.0703C7.02083 61.7682 6.66406 61.3359 6.41406 60.7734C6.15885 60.2109 6.03125 59.5469 6.03125 58.7812ZM10.6406 58.7187C10.6406 59.2396 10.7604 59.6849 11 60.0547C11.2448 60.4297 11.5807 60.7161 12.0078 60.9141C12.4349 61.1172 12.9271 61.2187 13.4844 61.2187L13.5 61.2187C14.0573 61.2187 14.5521 61.1172 14.9844 60.9141C15.4167 60.7161 15.7552 60.4297 16 60.0547C16.2448 59.6849 16.3672 59.2396 16.3672 58.7187C16.3672 58.1979 16.2448 57.7552 16 57.3906C15.7552 57.0312 15.4167 56.7552 14.9844 56.5625C14.5521 56.375 14.0573 56.2812 13.5 56.2812L13.4844 56.2812C12.9271 56.2812 12.4349 56.375 12.0078 56.5625C11.5807 56.7552 11.2448 57.0312 11 57.3906C10.7604 57.7552 10.6406 58.1979 10.6406 58.7187ZM8.85156 68.5C8.85156 67.6979 9.02864 67.0078 9.38281 66.4297C9.73698 65.8568 10.237 65.4141 10.8828 65.1016C11.5339 64.7943 12.2995 64.6406 13.1797 64.6406L13.1875 64.6406C14.0573 64.6406 14.8203 64.7943 15.4766 65.1016C16.1328 65.4141 16.6458 65.8542 17.0156 66.4219C17.3854 66.9896 17.5703 67.6536 17.5703 68.4141C17.5703 69.1797 17.3932 69.8359 17.0391 70.3828C16.6849 70.9349 16.1901 71.3568 15.5547 71.6484C14.9245 71.9453 14.1901 72.0937 13.3516 72.0937L12.8203 72.0937L12.8203 65.3437L13.9062 65.3437L13.9062 71.3984L12.9141 70.7266L13.4531 70.7266C14.1146 70.7266 14.6589 70.6276 15.0859 70.4297C15.513 70.2318 15.8307 69.9583 16.0391 69.6094C16.2526 69.2604 16.3594 68.8594 16.3594 68.4062C16.3594 67.9531 16.2474 67.5469 16.0234 67.1875C15.8047 66.8333 15.4792 66.5521 15.0469 66.3437C14.6146 66.1354 14.0833 66.0312 13.4531 66.0312L12.9141 66.0312C12.3151 66.0312 11.8021 66.1328 11.375 66.3359C10.9531 66.5391 10.6276 66.8281 10.3984 67.2031C10.1745 67.5781 10.0625 68.0208 10.0625 68.5312C10.0625 68.9115 10.1146 69.2422 10.2187 69.5234C10.3229 69.8047 10.4557 70.0365 10.6172 70.2187C10.7786 70.401 10.9427 70.5286 11.1094 70.6016L11.1797 70.6328L11.1797 71.9922L11.1172 71.9766C10.8307 71.9036 10.5521 71.7734 10.2812 71.5859C10.0156 71.4036 9.77344 71.1667 9.55469 70.875C9.34114 70.5833 9.16927 70.237 9.03906 69.8359C8.91406 69.4401 8.85156 68.9948 8.85156 68.5ZM9 78.7031L17.4219 78.7031L17.4219 80.0625L16.1562 80.0625L16.1562 80.1875C16.6042 80.401 16.9505 80.7083 17.1953 81.1094C17.4453 81.5104 17.5703 82.0208 17.5703 82.6406C17.5703 83.5885 17.2995 84.3151 16.7578 84.8203C16.2214 85.3307 15.4531 85.5859 14.4531 85.5859L9 85.5859L9 84.2266L14.125 84.2266C14.8854 84.2266 15.4479 84.0651 15.8125 83.7422C16.1823 83.4245 16.3672 82.9297 16.3672 82.2578C16.3672 81.8099 16.2708 81.4219 16.0781 81.0937C15.8854 80.7656 15.612 80.5104 15.2578 80.3281C14.9036 80.151 14.4792 80.0625 13.9844 80.0625L9 80.0625L9 78.7031ZM8.85156 90.3594C8.85156 89.8281 8.95312 89.349 9.15625 88.9219C9.35937 88.5 9.64843 88.1641 10.0234 87.9141C10.3984 87.6693 10.8411 87.5469 11.3516 87.5469L11.3672 87.5469C12.1172 87.5469 12.7031 87.8125 13.125 88.3437C13.5521 88.8802 13.7943 89.638 13.8516 90.6172L14.0391 93.7109L12.9531 93.7109L12.7656 90.7812C12.7292 90.1406 12.5964 89.6719 12.3672 89.375C12.138 89.0833 11.8151 88.9375 11.3984 88.9375L11.3828 88.9375C10.9557 88.9375 10.6224 89.099 10.3828 89.4219C10.1484 89.7448 10.0312 90.151 10.0312 90.6406C10.0312 91.1042 10.1224 91.5156 10.3047 91.875C10.4922 92.2344 10.7448 92.5156 11.0625 92.7187C11.3802 92.9271 11.7396 93.0312 12.1406 93.0312L14.7656 93.0312C15.2865 93.0312 15.6823 92.8724 15.9531 92.5547C16.2292 92.2422 16.3672 91.7708 16.3672 91.1406C16.3672 90.6354 16.276 90.2214 16.0937 89.8984C15.9167 89.5755 15.6641 89.3594 15.3359 89.25L15.3125 89.2422L15.3125 87.8828L15.3594 87.8906C15.8021 87.9635 16.1875 88.1458 16.5156 88.4375C16.849 88.7344 17.1068 89.1172 17.2891 89.5859C17.4766 90.0547 17.5703 90.5885 17.5703 91.1875C17.5703 91.875 17.4583 92.4557 17.2344 92.9297C17.0104 93.4089 16.6875 93.7708 16.2656 94.0156C15.849 94.2656 15.349 94.3906 14.7656 94.3906L9 94.3906L9 93.0312L10.2422 93.0312L10.2422 92.9062C9.94531 92.7292 9.6927 92.513 9.48437 92.2578C9.27604 92.0078 9.11718 91.724 9.00781 91.4062C8.90364 91.0885 8.85156 90.7396 8.85156 90.3594ZM9 96.875L17.4219 96.875L17.4219 98.2344L16.1406 98.2344L16.1406 98.3594C16.5937 98.5469 16.9453 98.8333 17.1953 99.2187C17.4453 99.6094 17.5703 100.081 17.5703 100.633C17.5703 101.013 17.5078 101.354 17.3828 101.656C17.2578 101.958 17.0833 102.219 16.8594 102.437C16.6406 102.656 16.3854 102.831 16.0937 102.961L16.0937 103.086C16.3906 103.237 16.6484 103.44 16.8672 103.695C17.0911 103.951 17.263 104.245 17.3828 104.578C17.5078 104.917 17.5703 105.279 17.5703 105.664C17.5703 106.237 17.4635 106.721 17.25 107.117C17.0365 107.518 16.724 107.823 16.3125 108.031C15.9062 108.24 15.4089 108.344 14.8203 108.344L9 108.344L9 106.984L14.5078 106.984C15.1276 106.984 15.5911 106.839 15.8984 106.547C16.2109 106.26 16.3672 105.82 16.3672 105.227C16.3672 104.836 16.2786 104.495 16.1016 104.203C15.9245 103.911 15.6875 103.685 15.3906 103.523C15.099 103.362 14.7734 103.281 14.4141 103.281L9 103.281L9 101.922L14.7187 101.922C15.2187 101.922 15.6172 101.763 15.9141 101.445C16.2161 101.128 16.3672 100.703 16.3672 100.172C16.3672 99.8073 16.2708 99.4766 16.0781 99.1797C15.8854 98.888 15.625 98.6562 15.2969 98.4844C14.974 98.3177 14.6146 98.2344 14.2187 98.2344L9 98.2344L9 96.875ZM8.85156 114.234C8.85156 113.432 9.02864 112.742 9.38281 112.164C9.73697 111.591 10.237 111.148 10.8828 110.836C11.5338 110.529 12.2995 110.375 13.1797 110.375L13.1875 110.375C14.0573 110.375 14.8203 110.529 15.4766 110.836C16.1328 111.148 16.6458 111.589 17.0156 112.156C17.3854 112.724 17.5703 113.388 17.5703 114.148C17.5703 114.914 17.3932 115.57 17.0391 116.117C16.6849 116.669 16.1901 117.091 15.5547 117.383C14.9245 117.68 14.1901 117.828 13.3516 117.828L12.8203 117.828L12.8203 111.078L13.9062 111.078L13.9062 117.133L12.9141 116.461L13.4531 116.461C14.1146 116.461 14.6588 116.362 15.0859 116.164C15.513 115.966 15.8307 115.693 16.0391 115.344C16.2526 114.995 16.3594 114.594 16.3594 114.141C16.3594 113.687 16.2474 113.281 16.0234 112.922C15.8047 112.568 15.4792 112.286 15.0469 112.078C14.6146 111.87 14.0833 111.766 13.4531 111.766L12.9141 111.766C12.3151 111.766 11.8021 111.867 11.375 112.07C10.9531 112.273 10.6276 112.562 10.3984 112.937C10.1745 113.312 10.0625 113.755 10.0625 114.266C10.0625 114.646 10.1146 114.977 10.2187 115.258C10.3229 115.539 10.4557 115.771 10.6172 115.953C10.7786 116.135 10.9427 116.263 11.1094 116.336L11.1797 116.367L11.1797 117.727L11.1172 117.711C10.8307 117.638 10.5521 117.508 10.2812 117.32C10.0156 117.138 9.77343 116.901 9.55468 116.609C9.34114 116.318 9.16927 115.971 9.03906 115.57C8.91406 115.174 8.85156 114.729 8.85156 114.234Z" fill="black"/>
</svg>
